<mxfile host="app.diagrams.net" modified="2021-08-19T07:10:31.251Z" agent="5.0 (Windows NT 10.0; Win64; x64) AppleWebKit/537.36 (KHTML, like Gecko) Chrome/92.0.4515.159 Safari/537.36" etag="VOMpVS8SLCQ5f0VSwOGR" version="14.9.7" type="github">
  <diagram id="C5RBs43oDa-KdzZeNtuy" name="Page-1">
    <mxGraphModel dx="1038" dy="547" grid="0" gridSize="10" guides="1" tooltips="1" connect="1" arrows="1" fold="1" page="1" pageScale="1" pageWidth="827" pageHeight="1169" math="0" shadow="0">
      <root>
        <mxCell id="WIyWlLk6GJQsqaUBKTNV-0" />
        <mxCell id="WIyWlLk6GJQsqaUBKTNV-1" parent="WIyWlLk6GJQsqaUBKTNV-0" />
        <mxCell id="LKwz6PlUGHCdikOw5iOe-4" value="" style="edgeStyle=orthogonalEdgeStyle;rounded=0;orthogonalLoop=1;jettySize=auto;html=1;" edge="1" parent="WIyWlLk6GJQsqaUBKTNV-1" source="LKwz6PlUGHCdikOw5iOe-0" target="LKwz6PlUGHCdikOw5iOe-1">
          <mxGeometry relative="1" as="geometry" />
        </mxCell>
        <mxCell id="LKwz6PlUGHCdikOw5iOe-0" value="App.vue" style="rounded=1;whiteSpace=wrap;html=1;" vertex="1" parent="WIyWlLk6GJQsqaUBKTNV-1">
          <mxGeometry x="354" y="31" width="120" height="60" as="geometry" />
        </mxCell>
        <mxCell id="LKwz6PlUGHCdikOw5iOe-5" style="edgeStyle=orthogonalEdgeStyle;rounded=0;orthogonalLoop=1;jettySize=auto;html=1;exitX=0.5;exitY=1;exitDx=0;exitDy=0;entryX=0.5;entryY=0;entryDx=0;entryDy=0;" edge="1" parent="WIyWlLk6GJQsqaUBKTNV-1" source="LKwz6PlUGHCdikOw5iOe-1" target="LKwz6PlUGHCdikOw5iOe-2">
          <mxGeometry relative="1" as="geometry" />
        </mxCell>
        <mxCell id="LKwz6PlUGHCdikOw5iOe-6" style="edgeStyle=orthogonalEdgeStyle;rounded=0;orthogonalLoop=1;jettySize=auto;html=1;exitX=0.5;exitY=1;exitDx=0;exitDy=0;" edge="1" parent="WIyWlLk6GJQsqaUBKTNV-1" source="LKwz6PlUGHCdikOw5iOe-1" target="LKwz6PlUGHCdikOw5iOe-3">
          <mxGeometry relative="1" as="geometry" />
        </mxCell>
        <mxCell id="LKwz6PlUGHCdikOw5iOe-1" value="登录界面" style="rounded=1;whiteSpace=wrap;html=1;" vertex="1" parent="WIyWlLk6GJQsqaUBKTNV-1">
          <mxGeometry x="354" y="147" width="120" height="60" as="geometry" />
        </mxCell>
        <mxCell id="LKwz6PlUGHCdikOw5iOe-2" value="表单填写界面" style="rounded=1;whiteSpace=wrap;html=1;" vertex="1" parent="WIyWlLk6GJQsqaUBKTNV-1">
          <mxGeometry x="234" y="275" width="120" height="60" as="geometry" />
        </mxCell>
        <mxCell id="LKwz6PlUGHCdikOw5iOe-3" value="管理界面" style="rounded=1;whiteSpace=wrap;html=1;" vertex="1" parent="WIyWlLk6GJQsqaUBKTNV-1">
          <mxGeometry x="474" y="275" width="120" height="60" as="geometry" />
        </mxCell>
      </root>
    </mxGraphModel>
  </diagram>
</mxfile>
